PathFileType	4	(X/Y/Z)	C:\Users\WrightLab\Desktop\Jo\P4V17.trc
DataRate	CameraRate	NumFrames	NumMarkers	Units	OrigDataRate	OrigDataStartFrame	OrigNumFrames
100.00	100.00	       16	19	mm	100.00	280	       744
Frame#	Time	Headset_Front			Headset_Back			Headset_Left			Headset_Right			Left_Shoulder			Right_Shoulder			Sternum			C7			Left Elbow			Right Elbow			Left Wrist			Right Wrist			Left ASIS			Right ASIS			S2			Left Knee			Right Knee			Left Ankle			Right Ankle			
		X1	Y1	Z1	X2	Y2	Z2	X3	Y3	Z3	X4	Y4	Z4	X5	Y5	Z5	X6	Y6	Z6	X7	Y7	Z7	X8	Y8	Z8	X9	Y9	Z9	X10	Y10	Z10	X11	Y11	Z11	X12	Y12	Z12	X13	Y13	Z13	X14	Y14	Z14	X15	Y15	Z15	X16	Y16	Z16	X17	Y17	Z17	X18	Y18	Z18	X19	Y19	Z19	

280	2.790	-599.09241	1681.15857	-1058.07874	-482.94958	1657.71350	-937.78845							-505.93723	1422.00317	-1063.03186	-613.22351	1488.32202	-1227.19849				-455.58545	1533.96106	-1208.22925	-187.36777	1158.92554	-1049.44702	-731.47540	1136.68164	-1294.74487	-263.23923	880.75092	-929.00677	-788.53363	862.94055	-1173.62744	-333.10608	998.20453	-1051.33691	-636.81439	1012.63141	-1195.84619				-333.83145	527.82196	-960.24573	-646.08234	526.60016	-1194.78137	-228.34128	188.57834	-1329.64734				
281	2.800	-603.69348	1682.16577	-1049.90967	-488.87048	1659.26355	-930.40857							-511.95560	1423.15210	-1055.74634	-618.46179	1489.47607	-1219.72229				-460.76779	1535.22791	-1200.96216	-191.80353	1160.03613	-1043.96143	-738.63440	1138.66833	-1286.64026	-268.60562	881.90723	-923.50140	-795.35748	866.19360	-1161.57678	-339.33536	998.40155	-1051.03967	-640.95123	1013.01416	-1189.64014				-346.33698	531.92938	-946.67450	-647.42877	526.46191	-1194.25195	-245.88794	181.84911	-1309.83984				
282	2.810	-608.18854	1682.83484	-1041.99890	-494.59702	1660.31750	-922.61890										-623.67120	1490.17896	-1211.73572				-466.02789	1535.95410	-1193.90198	-196.73361	1160.89575	-1038.53650	-745.94849	1139.77625	-1278.02722	-273.69769	882.52582	-917.14270	-802.78644	870.30603	-1150.48193	-344.10956	1000.50330	-1036.80627	-645.37976	1013.06244	-1183.83032				-358.29892	535.85107	-933.17389	-649.24261	525.80737	-1192.83789	-265.51407	176.41899	-1288.51794				
283	2.820	-612.48413	1683.25073	-1033.78125	-500.12805	1661.57690	-914.75867										-628.71198	1490.96460	-1204.60974	-519.61707	1424.75269	-1041.72595	-471.08469	1536.67737	-1186.66589	-200.96027	1161.62317	-1033.30542	-752.77118	1141.34790	-1270.48059	-278.04782	883.33838	-911.45459	-809.81586	872.28162	-1137.42053	-349.15817	1002.28345	-1029.19373	-651.13013	1013.73401	-1177.93567				-370.88397	539.79541	-920.44025	-650.81165	525.86316	-1192.63647	-284.09610	168.50864	-1266.00012				
284	2.830	-493.62885	1739.48901	-1216.81580													-633.71393	1491.59534	-1197.00330	-524.23206	1425.42834	-1033.82556	-476.03568	1537.14124	-1179.42419	-204.89111	1162.00391	-1027.51392	-759.71832	1141.84045	-1261.29468	-282.83353	883.73077	-907.04724	-817.16748	875.34344	-1125.08887	-354.78745	1002.97021	-1023.23810	-654.52039	1013.31372	-1169.72253				-382.23154	544.31317	-907.72479	-651.96655	525.81964	-1191.30322	-303.54416	160.57986	-1243.45349				
285	2.840	-498.29248	1740.32129	-1208.03137	-620.63593	1683.82922	-1016.87701										-638.55267	1491.86194	-1188.84021	-529.28143	1425.45056	-1026.39294	-480.89691	1537.47998	-1172.23218	-209.29036	1162.60071	-1022.27631	-766.16302	1142.85144	-1252.70642	-286.70636	883.70801	-901.12170	-823.87238	878.42377	-1113.39929	-359.57516	1003.93542	-1015.72852	-659.82336	1013.74274	-1162.50049				-392.93414	547.77283	-895.75476	-652.97614	525.48956	-1190.37122	-324.55594	151.35194	-1221.86487				
286	2.850	-502.89435	1740.97485	-1199.55103	-624.38184	1684.02173	-1008.27625										-643.35242	1492.13220	-1181.06604	-533.48566	1426.18982	-1018.85382	-485.66333	1537.59277	-1164.68176	-213.39897	1161.94690	-1015.74719	-772.73035	1143.27136	-1244.35901	-290.60748	883.75793	-895.55939	-830.81311	880.89197	-1101.29126	-364.60165	1003.26770	-1008.96216	-663.63019	1013.47784	-1153.10852				-403.61221	551.16962	-885.32336	-654.08673	524.85101	-1188.96313	-343.54739	141.47604	-1196.23083				
287	2.860	-507.19049	1741.79150	-1191.27002	-628.11218	1683.76599	-999.50006										-648.14557	1491.86780	-1173.20605	-538.28082	1425.68408	-1011.57104	-490.34113	1537.35339	-1156.90491	-217.27399	1161.23804	-1008.73718	-778.95581	1143.61743	-1235.32495	-294.22412	883.37872	-890.59650	-837.80426	883.32996	-1088.23792	-370.03970	1004.81238	-999.51691	-669.07867	1012.44690	-1148.77100				-414.01956	554.00494	-874.16779	-654.72882	524.49152	-1187.82166	-363.03940	133.16666	-1172.28735				
288	2.870	-511.51428	1742.28333	-1182.57971	-631.70087	1683.41431	-991.02661										-652.62305	1492.07239	-1164.96191	-542.78973	1425.59912	-1004.09229	-494.83743	1537.74719	-1149.69556	-221.20369	1161.14124	-1004.12518	-784.90326	1144.04895	-1226.22314	-297.68823	882.32300	-883.73676	-844.18292	886.26672	-1077.39941	-374.49088	1004.84937	-991.54926	-674.04810	1011.57983	-1141.33435				-424.22443	556.39868	-864.11847	-655.50391	523.80579	-1184.91846	-382.32834	123.75362	-1146.33264				
289	2.880	-515.68024	1742.45972	-1173.94250	-635.11694	1683.05957	-981.70190										-657.17847	1491.60132	-1156.48218	-547.42426	1426.13403	-996.01227	-499.41873	1537.07593	-1141.73938	-224.73730	1160.32056	-997.05737	-790.88239	1143.81775	-1217.06055	-301.07434	881.47504	-878.50708	-850.39709	887.84467	-1063.38342	-379.19028	1005.73779	-982.39514	-679.43799	1012.65411	-1131.22449				-434.06812	558.68018	-854.06451	-656.44788	523.23163	-1182.32434	-403.89658	112.68893	-1122.48425				
290	2.890	-416.63055	1710.76135	-1152.00244	-638.37927	1682.52356	-972.97186										-661.64142	1491.19312	-1148.66772	-549.39606	1423.87317	-987.63733	-503.81558	1536.54480	-1134.02283	-229.02089	1160.09631	-991.99164	-796.44836	1143.79504	-1207.37842	-304.34940	880.28772	-872.85522	-857.21985	890.11169	-1050.33215	-384.34900	1004.06531	-977.13873	-682.54663	1010.12988	-1125.56396				-442.98038	560.12659	-844.60266	-657.80206	522.92456	-1179.97009	-422.95673	103.95161	-1095.88599				
291	2.900	-419.83124	1709.93152	-1142.35376	-641.61676	1681.57214	-963.61847										-666.02850	1490.44031	-1139.79614	-552.58118	1423.74634	-979.56647	-508.03171	1536.08899	-1125.65601	-232.29095	1158.93982	-985.60565	-802.06305	1143.26758	-1197.45886	-306.87289	878.60522	-866.67621	-862.95172	892.04102	-1038.30066	-389.12024	1004.59467	-969.34174	-687.05243	1010.03705	-1119.49463				-451.42365	561.17529	-835.43250	-659.58124	522.46277	-1176.92041	-441.45490	94.62752	-1069.91943				
292	2.910	-423.08646	1708.61694	-1132.75610	-644.64581	1680.80225	-954.30688										-670.33051	1489.62952	-1130.83557	-556.06189	1422.08740	-971.68829	-512.30927	1535.13647	-1117.80725	-236.05222	1157.99548	-979.64026	-807.50189	1142.62622	-1187.38635	-309.69003	877.41803	-861.47198	-868.14417	892.81659	-1024.91711	-393.36844	1002.34790	-961.05603	-692.57434	1008.03357	-1111.89758				-459.68329	561.69061	-827.02686	-661.47064	522.44098	-1174.05811	-459.96466	86.80492	-1041.61633				
293	2.920	-426.10992	1707.46875	-1122.82825	-647.48248	1679.84192	-944.35760										-674.43652	1488.99548	-1122.83618	-560.31165	1421.26624	-963.14246	-516.39624	1534.25830	-1109.48108	-239.45096	1156.26294	-972.93878	-812.40698	1142.54602	-1177.57593	-312.71008	875.83252	-855.04309	-874.24408	894.77374	-1011.97791	-397.71173	1000.97339	-952.51538	-695.73682	1008.46991	-1103.88281				-466.44745	562.61945	-819.23846	-663.71735	521.85223	-1170.41650	-479.22949	75.86373	-1012.74500				
294	2.930	-429.06989	1706.27832	-1112.75061	-650.40674	1678.15906	-934.42072										-678.48523	1488.06982	-1114.12512	-564.63330	1420.45300	-955.26135	-520.33521	1533.15967	-1101.09045	-242.70285	1154.95667	-965.48633	-817.44067	1141.68152	-1168.18628	-315.30255	873.87610	-848.22266	-878.87775	896.23004	-998.81329	-402.74283	1000.99939	-944.09473	-700.52423	1006.83228	-1094.29932				-474.08109	562.45947	-811.72968	-666.26611	520.90265	-1166.08936	-497.57263	68.10776	-983.32330				
295	2.940	-431.88419	1704.91052	-1103.23547	-653.00769	1676.71521	-924.49152										-682.44189	1487.02075	-1104.95251	-567.62250	1419.17114	-946.03900	-524.22821	1531.99084	-1092.59045	-246.04245	1153.54333	-958.35162	-822.30469	1140.44092	-1157.19995	-317.37735	871.83173	-842.27917	-883.90240	897.30554	-986.00415	-407.61005	998.87848	-938.08453	-706.22070	1004.75122	-1088.55103				-480.68726	561.08575	-804.22864	-668.83911	520.57251	-1162.12329	-514.95282	59.41888	-954.36438				
